<svg xmlns="http://www.w3.org/2000/svg" id="Layer_1" width="5021.279" height="1609.955">
    <g fill="#373A3A">
        <path d="M1937.128 958.443l-39.554-88.354h-214.72l-39.04 88.353h-29.795l161.297-359.58h30.307l161.298 359.58h-29.794zm-50.34-114.038l-96.574-218.83-96.573 218.83h193.147zM2038.322 704.682l1.026 45.205c15.925-34.417 51.882-47.772 84.245-47.772 19.008-.515 37.5 4.623 54.45 14.896l-11.3 20.548c-13.356-8.22-28.253-11.813-43.15-11.813-47.26.514-83.73 38.525-83.73 84.76v147.94h-25.17V704.682h23.63zM2435.917 923c-25.685 25.684-59.074 38.012-92.464 38.012-71.402 0-130.478-49.312-130.478-129.45 0-80.134 57.02-129.447 130.478-129.447 33.39 0 66.78 12.843 92.464 38.013l-16.438 15.925c-20.55-20.548-48.802-30.308-76.026-30.308-57.532 0-105.82 37.5-105.82 105.818 0 68.32 48.288 105.82 105.82 105.82 27.227 0 54.965-10.788 75.513-31.336l16.95 16.952zM2523.242 598.862v153.08c20.547-36.474 55.99-50.344 91.436-50.856 70.89 0 106.334 45.72 106.334 111.984v145.373h-24.656V813.07c0-52.396-24.657-87.842-81.678-87.842-53.423 0-90.408 41.096-90.408 94.006v139.21h-25.17V598.86h24.142zM2831.97 621.98c0 26.712-40.58 26.712-40.58 0 0-26.713 40.58-26.713 40.58 0zm-33.39 81.674v254.79h25.17v-254.79h-25.17zM2965.528 628.143v76.54h86.3v21.06h-86.3v154.62c0 34.418 7.19 58.56 46.745 58.56 12.328 0 26.197-4.107 39.04-10.27l8.732 20.547c-15.925 7.705-31.85 12.842-47.772 12.842-53.938 0-71.402-31.85-71.402-81.676v-154.62h-53.937v-21.062h53.938v-73.97l24.658-2.57zM3107.306 831.562c0-76.025 57.533-130.99 128.937-130.99 71.402 0 135.1 43.663 125.34 142.805H3132.99c5.137 59.588 50.854 94.005 103.25 94.005 33.39 0 72.432-13.354 91.438-38.525l17.98 14.384c-24.658 32.362-68.835 48.8-109.417 48.8-71.4 0-128.934-49.828-128.934-130.478zm231.673-10.273c-.515-62.67-41.608-97.603-102.737-97.603-52.396 0-97.602 35.444-103.25 97.602h205.986zM3646.68 923c-25.686 25.684-59.074 38.012-92.465 38.012-71.402 0-130.477-49.312-130.477-129.45 0-80.134 57.02-129.447 130.477-129.447 33.39 0 66.78 12.843 92.464 38.013l-16.44 15.925c-20.547-20.548-48.8-30.308-76.025-30.308-57.532 0-105.82 37.5-105.82 105.818 0 68.32 48.288 105.82 105.82 105.82 27.227 0 54.965-10.788 75.513-31.336l16.95 16.952zM3767.907 628.143v76.54h86.3v21.06h-86.3v154.62c0 34.418 7.19 58.56 46.745 58.56 12.328 0 26.197-4.107 39.04-10.27l8.732 20.547c-15.925 7.705-31.85 12.842-47.772 12.842-53.938 0-71.402-31.85-71.402-81.676v-154.62h-53.938v-21.062h53.938v-73.97l24.657-2.57zM4098.208 750.914c-25.685-22.604-50.854-26.712-79.106-26.712-39.555-.514-77.567 14.383-76.54 46.745 1.026 33.902 45.204 40.582 77.054 46.23 45.204 7.706 107.36 15.41 104.792 74.485-1.54 55.992-59.588 70.89-104.278 70.89s-88.867-16.952-110.957-50.855l18.493-16.438c21.062 30.308 59.074 43.148 92.978 43.148 30.82 0 77.566-8.22 79.107-48.286 1.028-36.472-41.094-43.663-82.702-50.342-49.314-8.22-98.114-17.465-98.628-68.32-.514-49.827 49.313-71.402 100.683-70.89 36.985 0 69.35 10.273 94.52 33.903l-15.415 16.44z"/>
    </g>
    <g fill="#D0CFCF">
        <path d="M4233.31 943.033c0 26.71-40.583 26.71-40.583 0 0-26.712 40.582-26.712 40.582 0zM4345.803 621.98c0 26.712-40.58 26.712-40.58 0 0-26.713 40.58-26.713 40.58 0zm-33.39 81.674v254.79h25.17v-254.79h-25.17zM4415.143 832.076c0-80.648 57.533-132.02 128.937-132.02 71.4 0 128.937 51.37 128.937 132.02 0 80.648-57.533 129.963-128.937 129.963-71.405 0-128.937-49.314-128.937-129.964zm233.212 0c0-65.752-46.746-108.39-104.277-108.39-57.533 0-104.277 42.638-104.277 108.39s46.745 105.306 104.278 105.306c57.53 0 104.277-39.554 104.277-105.306z"/>
    </g>
    <path fill="#60D799" d="M923.003 418.405l-197.56 342.18-98.78-171.08 98.79-171.11z"/>
    <path fill="#D83232" d="M774.052 1018.464l-98.76 171.1h-197.59l-98.77-171.1z"/>
    <path fill="#D0CFCF" d="M1269.083 1017.844l-98.79 171.1H972.73l197.562-342.19z"/>
    <path fill="#FFF" d="M709.282 788.585v.01l229.89.012-229.89-.022zm229.89-398.17h-.01l114.97 199.08-114.96-199.08zm362.23 627.42l-114.96 199.12h.01l114.96-199.11-.01-.01zm-592.12-229.25v.01l229.89.012-229.89-.022zm229.89-398.17h-.01l114.97 199.08-114.96-199.08zm362.23 627.42l-114.96 199.12h.01l114.96-199.11-.01-.01zm-592.12-229.25v.01l229.89.012-229.89-.022zm229.89-398.17h-.01l114.97 199.08-114.96-199.08zm362.23 627.42l-114.96 199.12h.01l114.96-199.11-.01-.01zm0 0l-114.96 199.12h.01l114.96-199.11-.01-.01zm-592.12-229.25v.01l229.89.012-229.89-.022zm229.89-398.17h-.01l114.97 199.08-114.96-199.08zm-229.89 398.17v.01l229.89.012-229.89-.022zm229.89-398.17h-.01l114.97 199.08-114.96-199.08zm362.23 627.42l-114.96 199.12h.01l114.96-199.11-.01-.01zm0 0l-114.96 199.12h.01l114.96-199.11-.01-.01zm-592.12-229.25v.01l229.89.012-229.89-.022zm229.89-398.17h-.01l114.97 199.08-114.96-199.08zm-229.89 398.17v.01l229.89.012-229.89-.022zm229.89-398.17h-.01l114.97 199.08-114.96-199.08zm362.23 627.42l-114.96 199.12h.01l114.96-199.11-.01-.01zm0 0l-114.96 199.12h.01l114.96-199.11-.01-.01zm-362.23-627.42h-.01l114.97 199.08-114.96-199.08zm-229.89 398.17v.01l229.89.012-229.89-.022zm0 0v.01l229.89.012-229.89-.022zm229.89-398.17h-.01l114.97 199.08-114.96-199.08zm362.23 627.42l-114.96 199.12h.01l114.96-199.11-.01-.01zm0 0l-114.96 199.12h.01l114.96-199.11-.01-.01zm-362.24-627.42l114.97 199.08-114.96-199.08h-.01zm-229.88 398.18l229.89.01-229.89-.02v.01zm592.12 229.24l-114.96 199.12h.01l114.96-199.11-.01-.01zm-362.24-627.42l114.97 199.08-114.96-199.08h-.01zm-229.88 398.18l229.89.01-229.89-.02v.01zm0-.01v.01l229.89.012-229.89-.022zm229.89-398.17h-.01l114.97 199.08-114.96-199.08zm362.23 627.42l-114.96 199.12h.01l114.96-199.11-.01-.01zm0 0l-114.96 199.12h.01l114.96-199.11-.01-.01zm-362.23-627.42h-.01l114.97 199.08-114.96-199.08zm-229.89 398.17v.01l229.89.012-229.89-.022zm0 0v.01l229.89.012-229.89-.022zm229.89-398.17h-.01l114.97 199.08-114.96-199.08zm362.23 627.42l-114.96 199.12h.01l114.96-199.11-.01-.01zm0 0l-114.96 199.12h.01l114.96-199.11-.01-.01zm-592.12-229.25v.01l229.89.012-229.89-.022zm229.89-398.17h-.01l114.97 199.08-114.96-199.08zm-229.89 398.17v.01l229.89.012-229.89-.022zm229.89-398.17h-.01l114.97 199.08-114.96-199.08zm362.23 627.42l-114.96 199.12h.01l114.96-199.11-.01-.01zm0 0l-114.96 199.12h.01l114.96-199.11-.01-.01zm-592.12-229.25v.01l229.89.012-229.89-.022zm229.89-398.17h-.01l114.97 199.08-114.96-199.08z"/>
    <path fill="#373A3A" d="M1327.433 1002.794l-106.34-184.14h.04l-26.03-45.104-114.938-199.1-114.96-199.08-8.67-15.02h-17.36l-229.88-.02h-17.358l-8.68 15.03-106.732 184.85-.03-.05-26.03 45.09-114.958 199.09-114.932 199.105-8.682 15.02 8.682 15.03 114.932 199.09 8.68 15.04H708.82l8.67-15.04 106.68-184.8 106.36 184.18 8.678 15.03h17.35l229.884.01h17.357l8.68-15.02 114.962-199.12 8.68-15.03-8.69-15.04zm-618.15-612.41l229.88.03h.01l114.96 199.08 114.94 199.1-229.9.014-229.89-.014v-.01l-114.96-199.07 114.96-199.13zm-17.83 827.18h-229.92l-114.93-199.103 114.93-199.09 114.96-199.09L691.45 819.37l114.932 199.09-114.93 199.104zm495-.61h-.01l-229.88-.01-114.96-199.08-114.94-199.11 229.9-.01 229.89.02 114.95 199.07.01.01-114.96 199.11z"/>
    <path fill="#69F9AE" d="M1054.132 589.495l-114.97-199.08-229.88-.03-114.96 199.13 114.96 199.07 229.89.02 229.9-.01-114.94-199.1zm-328.69 171.09l-98.78-171.08 98.79-171.11 197.55.014-197.56 342.175z"/>
    <path fill="#FFF" d="M1186.452 818.764l-229.89-.02-229.898.01 114.94 199.11 114.96 199.08 229.88.01 114.96-199.12-114.952-199.07zm-16.16 370.18h-197.56l197.56-342.19 98.79 171.09-98.79 171.1z"/>
    <path fill="#FC3030" d="M691.452 819.375l-114.958-199.09-114.96 199.09-114.932 199.09 114.93 199.1h229.92l114.93-199.1-114.93-199.09zm-16.16 370.19h-197.59l-98.77-171.104H774.05l-98.758 171.104z"/>
</svg>

